<?xml version="1.0" encoding="utf-8"?>
<!-- Generator: Adobe Illustrator 24.0.2, SVG Export Plug-In . SVG Version: 6.00 Build 0)  -->
<svg version="1.1" id="Layer_1" xmlns="http://www.w3.org/2000/svg" xmlns:xlink="http://www.w3.org/1999/xlink" x="0px" y="0px"
	 width="16px" height="16px" viewBox="0 0 424.9 424.8" style="enable-background:new 0 0 424.9 424.8;" xml:space="preserve"
	>
  <path d="M120.8,424.8c-52.3,0.1-93.9-27.6-111.8-70.2c-17.9-42.5-8.5-91,24.4-124.8c10.5-10.8,21.1-21.3,31.8-31.8
	c9.4-9.3,22.5-9.4,31.2-0.6c8.5,8.7,8.1,21.5-1.1,30.8c-10.4,10.5-21.1,20.9-31.4,31.5c-20.4,21-26.9,45.9-17.9,73.6
	c9,27.7,29.1,44.3,58,48.7c23.1,3.5,43.5-3.4,60.4-19.8c11.1-10.8,21.9-22,33-32.8c7.7-7.5,19.1-8.3,27.5-2.2
	c8.5,6.1,11.3,17.4,6.6,26.7c-1,2-2.4,4-4,5.7c-11.5,11.6-22.8,23.4-34.7,34.5C170.7,414.6,144.5,424.6,120.8,424.8z" fill="white"/>
  <path d="M424.9,112.3c-0.3,32.3-10.4,58.6-31.1,80.6c-11.3,12-23.2,23.5-34.9,35.1c-6.1,6-13.6,7.7-21.7,5
	c-8.1-2.7-12.9-8.6-14.3-17.1c-1.2-7.5,1.5-13.7,6.8-19c11.1-11.1,22.3-22,33.2-33.3c38.3-39.4,20.5-105-32.5-119.4
	c-25.8-7-48.9-0.8-68.4,17.4c-11.8,11-22.9,22.8-34.4,34.2c-6.5,6.4-14.3,8.4-23,5.1c-8.2-3.2-13.3-9.4-13.4-18.1
	c-0.1-4.8,1.1-11.1,4.2-14.3c16.2-16.9,31.3-35.2,50.9-48.6c69.4-47.6,165.9-4.7,177.3,78.7C424.4,103.8,424.7,109.1,424.9,112.3z" fill="white"
	/>
  <path d="M146.6,299.7c-8.6-0.2-15.1-4-18.9-11.7c-3.9-7.8-3.1-15.5,2-22.6c1.1-1.5,2.4-2.8,3.7-4c42.9-42.9,85.8-85.7,128.6-128.6
	c6.6-6.6,14.1-9.5,23.1-6.7c13.8,4.2,19.3,20.6,11.1,32.4c-1.3,1.9-3,3.6-4.6,5.2c-42.6,42.7-85.3,85.3-127.9,128
	C158.9,296.5,153.6,299.9,146.6,299.7z" fill="white"/>
</svg>