<svg width="17" height="18" viewBox="0 0 17 18" fill="none" xmlns="http://www.w3.org/2000/svg">
<path d="M15.7177 0H1.25317C0.56028 0 0 0.570803 0 1.27652V16.4322C0 17.1379 0.56028 17.7122 1.25317 17.7122H15.7177C16.4106 17.7122 16.9742 17.1379 16.9742 16.4357V1.27652C16.9742 0.570803 16.4106 0 15.7177 0ZM5.03589 15.0934H2.51629V6.63861H5.03589V15.0934ZM3.77609 5.48662C2.96716 5.48662 2.31406 4.80512 2.31406 3.96448C2.31406 3.12385 2.96716 2.44234 3.77609 2.44234C4.5817 2.44234 5.23481 3.12385 5.23481 3.96448C5.23481 4.80166 4.5817 5.48662 3.77609 5.48662ZM14.4645 15.0934H11.9482V10.9836C11.9482 10.0046 11.9316 8.74193 10.6387 8.74193C9.32916 8.74193 9.13025 9.81089 9.13025 10.9144V15.0934H6.61727V6.63861H9.03079V7.79405H9.06394C9.39878 7.12984 10.221 6.42758 11.4443 6.42758C13.9937 6.42758 14.4645 8.17804 14.4645 10.4543V15.0934Z" fill="white"/>
</svg>
