<svg width="17" height="16" viewBox="0 0 17 16" fill="none" xmlns="http://www.w3.org/2000/svg">
<path d="M5.3399 15.2362C11.7437 15.2362 15.2472 9.55697 15.2472 4.63343C15.2472 4.47377 15.2439 4.31057 15.2373 4.15091C15.9189 3.62342 16.507 2.97006 16.9742 2.22151C16.3394 2.52375 15.6655 2.72113 14.9754 2.80693C15.702 2.34081 16.2461 1.60856 16.5067 0.745909C15.8231 1.17946 15.0756 1.48529 14.2961 1.65029C13.7709 1.05306 13.0765 0.657616 12.3202 0.525109C11.5639 0.392602 10.7879 0.530407 10.1122 0.917219C9.43643 1.30403 8.89857 1.91831 8.58175 2.66507C8.26493 3.41183 8.1868 4.2495 8.35945 5.04855C6.97532 4.97421 5.62123 4.58941 4.38498 3.9191C3.14873 3.24878 2.0579 2.30791 1.18322 1.15748C0.738659 1.97775 0.602623 2.9484 0.802758 3.87216C1.00289 4.79592 1.52418 5.60347 2.26068 6.13068C1.70776 6.11189 1.16696 5.95258 0.682945 5.66589V5.71202C0.68245 6.57284 0.960524 7.40727 1.4699 8.07349C1.97927 8.7397 2.68851 9.19657 3.47705 9.36644C2.96486 9.51641 2.42729 9.53827 1.90595 9.4303C2.12846 10.1706 2.56138 10.8181 3.1443 11.2824C3.72722 11.7467 4.43105 12.0047 5.15756 12.0203C3.92416 13.0572 2.40055 13.6196 0.832132 13.6169C0.553985 13.6165 0.276112 13.5982 0 13.5623C1.59335 14.6563 3.44684 15.2373 5.3399 15.2362Z" fill="white"/>
</svg>
