<svg xmlns="http://www.w3.org/2000/svg" width="14" height="14" viewBox="0 0 14 14">
  <g id="SHARE_ICON" data-name="SHARE ICON" transform="translate(0.5 0.5)">
    <path id="Stroke_1" data-name="Stroke 1" d="M5,2.5A2.5,2.5,0,1,1,2.5,0,2.5,2.5,0,0,1,5,2.5Z" transform="translate(0 4)" fill="none" stroke="#9a9a9a" stroke-linecap="round" stroke-linejoin="round" stroke-miterlimit="10" stroke-width="1"/>
    <path id="Stroke_3" data-name="Stroke 3" d="M5,2.5A2.5,2.5,0,1,1,2.5,0,2.5,2.5,0,0,1,5,2.5Z" transform="translate(8)" fill="none" stroke="#9a9a9a" stroke-linecap="round" stroke-linejoin="round" stroke-miterlimit="10" stroke-width="1"/>
    <path id="Stroke_5" data-name="Stroke 5" d="M5,2.5A2.5,2.5,0,1,1,2.5,0,2.5,2.5,0,0,1,5,2.5Z" transform="translate(8 8)" fill="none" stroke="#9a9a9a" stroke-linecap="round" stroke-linejoin="round" stroke-miterlimit="10" stroke-width="1"/>
    <path id="Stroke_7" data-name="Stroke 7" d="M3,0,3,0,0,2,0,2Z" transform="translate(5 3)" fill="none" stroke="#9a9a9a" stroke-linecap="round" stroke-linejoin="round" stroke-miterlimit="10" stroke-width="1"/>
    <path id="Stroke_9" data-name="Stroke 9" d="M0,0,0,0,3,2,3,2Z" transform="translate(5 7)" fill="none" stroke="#9a9a9a" stroke-linecap="round" stroke-linejoin="round" stroke-miterlimit="10" stroke-width="1"/>
  </g>
</svg>