<svg xmlns="http://www.w3.org/2000/svg" xmlns:xlink="http://www.w3.org/1999/xlink" width="35" height="51.918" viewBox="0 0 35 51.918">
  <defs>
    <filter id="Combined_Shape" x="0" y="0" width="35" height="51.918" filterUnits="userSpaceOnUse">
      <feOffset dy="1" input="SourceAlpha"/>
      <feGaussianBlur stdDeviation="0.5" result="blur"/>
      <feFlood flood-opacity="0.502"/>
      <feComposite operator="in" in2="blur"/>
      <feComposite in="SourceGraphic"/>
    </filter>
  </defs>
  <g id="Group_2" data-name="Group 2" transform="translate(1.5 0.5)">
    <g transform="matrix(1, 0, 0, 1, -1.5, -0.5)" filter="url(#Combined_Shape)">
      <path id="Combined_Shape-2" data-name="Combined Shape" d="M3.253,25.172A15.423,15.423,0,0,1,0,15.689,15.846,15.846,0,0,1,16,0,15.847,15.847,0,0,1,32,15.689a15.422,15.422,0,0,1-3.255,9.485L16,48.918Z" transform="translate(1.5 0.5)" fill="#d1661a"/>
    </g>
    <path id="Path" d="M7,0A7,7,0,1,1,0,7,7,7,0,0,1,7,0Z" transform="translate(8.5 8.5)" fill="#fff"/>
  </g>
</svg>
